<svg viewBox="0 0 424.9321 108.8569" fill="none" xmlns="http://www.w3.org/2000/svg" xmlns:xlink="http://www.w3.org/1999/xlink" id="3df7d56b" x="0" y="0"><g id="Desktop" data-node-id="151:923" clip-path="url(#clip0_151_923)"><g id="paraQuemÉ" data-node-id="151:1064"><g id="row_4" data-node-id="151:1070"><g id="Group 482180" data-node-id="151:1087"><path id="Vector_62" data-node-id="151:1088" d="M28.0588,89.002c-0.414,0.27 -0.693,0.7 -0.759,1.19c-0.185,1.37 1.29,2.34 2.458,1.59c12.416,-7.9 22.882,-17.91 34.061,-27.1c13.138,-10.93 30.503,-24.85 50.31,-22.85c18.492,1.81 29.938,17.59 40.143,29.81c11.055,13.01 24.73,25.02 41.587,31.87c14.693,5.88 30.318,6.29 45.248,1.87c27.28,-8.01 47.31,-27.5 74.11,-36.25c6.6,-2.16 13.49,-3.6 20.57,-3.66c9.59,-0.23 19.22,2.08 28.17,5.16c18.08,6.33 34.53,16.17 53.53,19.92c1.74,0.37 3.49,0.64 5.25,0.88c0.82,0.11 1.57,-0.46 1.68,-1.28c0.12,-0.83 -0.48,-1.59 -1.31,-1.7c-7.94,-1.08 -15.7,-3.43 -23.24,-6.2c-17.82,-6.81 -35,-16.92 -54.39,-19.2c-30.46,-3.77 -54.93,14.61 -78.7,27.84c-11.99,6.68 -24.88,12.9 -39.43,14.5c-18.824,2.03 -36.552,-5.44 -50.948,-16.37c-7.445,-5.74 -13.84,-12.2 -19.604,-19.07c-5.456,-6.33 -10.679,-12.97 -16.998,-18.56c-5.966,-5.38 -13.028,-9.72 -21.2,-11.5c-8.736,-1.86 -17.943,-0.22 -25.828,2.95c-17.969,7.06 -31.655,20.63 -45.657,32.3c-5.995,4.61 -12.21,9.5 -19.053,13.86z" fill="url(#paint51_linear_151_923)"/><path id="Vector_63" data-node-id="151:1089" d="M0.6298,96.082c-0.116,0.23 -0.156,0.5 -0.113,0.75c0.193,1.17 1.735,1.42 2.248,0.35c4.766,-9.93 8.119,-21.24 12.023,-31.98c4.703,-13.15 11.043,-30.03 22.452,-32.57c10.642,-2.42 20.654,9.79 29.149,18.95c9.149,9.7 19.513,17.89 30.427,20.55c9.493,2.22 18.221,-0.87 25.44,-8.32c13.196,-13.56 19.706,-36.25 32.468,-50.4c3.142,-3.48 6.609,-6.37 10.508,-8c5.245,-2.35 11.107,-2.33 16.773,-1.45c11.466,1.91 22.858,7.45 34.23,6.73c0.859,-0.04 1.707,-0.14 2.552,-0.26c0.79,-0.12 1.32,-0.87 1.19,-1.65c-0.13,-0.81 -0.91,-1.34 -1.71,-1.22c-4.464,0.62 -9.098,0.16 -13.707,-0.72c-11.437,-2.4 -23.294,-8.03 -34.537,-5.85c-17.713,3.25 -26.934,25.89 -36.977,43.55c-5.062,8.92 -10.726,17.61 -18.395,22.33c-9.923,6.1 -21.466,3.05 -31.972,-3.96c-5.458,-3.72 -10.5,-8.33 -15.292,-13.48c-4.493,-4.7 -8.93,-9.74 -13.73,-13.57c-4.553,-3.7 -9.47,-6.19 -14.402,-6.04c-5.26,0.21 -9.964,3.79 -13.579,8.51c-8.277,10.6 -12.666,26.34 -17.675,40.36c-2.258,5.71 -4.57,11.74 -7.371,17.39z" fill="url(#paint52_linear_151_923)"/></g></g></g></g><defs><linearGradient id="paint51_linear_151_923" x1="-39.158199999999965" y1="63.19200000000001" x2="405.80680000000007" y2="55.291999999999916" gradientUnits="userSpaceOnUse">
<stop stop-color="#9D4EDD"/>
<stop offset="1" stop-color="#9D4EDD" stop-opacity="0"/>
</linearGradient><linearGradient id="paint52_linear_151_923" x1="-42.45619999999997" y1="86.72200000000021" x2="211.96479999999997" y2="20.172000000000025" gradientUnits="userSpaceOnUse">
<stop stop-color="#9D4EDD"/>
<stop offset="1" stop-color="#9D4EDD" stop-opacity="0"/>
</linearGradient><clipPath id="clip0_151_923">
<rect width="1440" height="6807.89" fill="white" x="-781.8632" y="-2225.618"/>
</clipPath></defs></svg>