<svg viewBox="0 0 24.7158 24.7158" fill="none" xmlns="http://www.w3.org/2000/svg" xmlns:xlink="http://www.w3.org/1999/xlink" x="0" y="0"><defs><clipPath id="clip6_151_923">
<rect width="13.7321" height="13.7321" fill="white" transform="translate(5.494899999999916, 5.496900000000096)"/>
</clipPath></defs><g id="Group 2816">
<circle id="Ellipse 26" cx="12.354899999999816" cy="12.356900000000223" r="12.3579" fill="#F5F5F5"/>
<g id="Frame_7" clip-path="url(#clip6_151_923)">
<path id="Vector_190" d="M12.3549,6.6369v11.44" stroke="#9D4EDD" stroke-width="1.14434" stroke-linecap="round" stroke-linejoin="round"/>
<path id="Vector_191" d="M15.2249,8.3569h-4.3c-0.53,0 -1.04,0.21 -1.41,0.58c-0.38,0.38 -0.59,0.89 -0.59,1.42c0,0.53 0.21,1.04 0.59,1.42c0.37,0.37 0.88,0.58 1.41,0.58h2.86c0.54,0 1.05,0.21 1.42,0.59c0.38,0.37 0.59,0.88 0.59,1.41c0,0.54 -0.21,1.05 -0.59,1.42c-0.37,0.38 -0.88,0.59 -1.42,0.59h-4.86" stroke="#9D4EDD" stroke-width="1.14434" stroke-linecap="round" stroke-linejoin="round"/>
</g>
</g></svg>