<svg viewBox="0 0 20 20" fill="none" xmlns="http://www.w3.org/2000/svg" xmlns:xlink="http://www.w3.org/1999/xlink" x="0" y="0"><defs><clipPath id="clip10_151_923">
<rect width="20" height="20" fill="white" transform="translate(0.0018999999999778083, 0.0033000000003085006)"/>
</clipPath></defs><g id="Frame_13" clip-path="url(#clip10_151_923)">
<path id="Vector_218" d="M10.0019,1.6633v16.67" stroke="white" stroke-width="1.66667" stroke-linecap="round" stroke-linejoin="round"/>
<path id="Vector_219" d="M14.1619,4.1633h-6.25c-0.77,0 -1.51,0.31 -2.06,0.86c-0.54,0.54 -0.85,1.29 -0.85,2.06c0,0.77 0.31,1.52 0.85,2.06c0.55,0.55 1.29,0.86 2.06,0.86h4.17c0.77,0 1.52,0.3 2.06,0.85c0.55,0.55 0.86,1.29 0.86,2.06c0,0.78 -0.31,1.52 -0.86,2.07c-0.54,0.54 -1.29,0.85 -2.06,0.85h-7.08" stroke="white" stroke-width="1.66667" stroke-linecap="round" stroke-linejoin="round"/>
</g></svg>