<svg viewBox="0 0 20 20" fill="none" xmlns="http://www.w3.org/2000/svg" xmlns:xlink="http://www.w3.org/1999/xlink" x="0" y="0"><defs><clipPath id="clip9_151_923">
<rect width="20" height="20" fill="white" transform="translate(-0.0002000000000066393, 0.0033000000003085006)"/>
</clipPath></defs><g id="Frame_10" clip-path="url(#clip9_151_923)">
<path id="Vector_206" d="M9.9998,6.6633c4.142,0 7.5,-1.12 7.5,-2.5c0,-1.38 -3.358,-2.5 -7.5,-2.5c-4.142,0 -7.5,1.12 -7.5,2.5c0,1.38 3.358,2.5 7.5,2.5z" stroke="#9D4EDD" stroke-width="1.66667" stroke-linecap="round" stroke-linejoin="round"/>
<path id="Vector_207" d="M2.4998,4.1633v11.67c0,0.66 0.79,1.3 2.197,1.77c1.406,0.47 3.314,0.73 5.303,0.73c1.989,0 3.897,-0.26 5.304,-0.73c1.406,-0.47 2.196,-1.11 2.196,-1.77v-11.67" stroke="#9D4EDD" stroke-width="1.66667" stroke-linecap="round" stroke-linejoin="round"/>
<path id="Vector_208" d="M2.4998,10.0033c0,0.66 0.79,1.3 2.197,1.76c1.406,0.47 3.314,0.74 5.303,0.74c1.989,0 3.897,-0.27 5.304,-0.74c1.406,-0.46 2.196,-1.1 2.196,-1.76" stroke="#9D4EDD" stroke-width="1.66667" stroke-linecap="round" stroke-linejoin="round"/>
</g></svg>