<svg viewBox="0 0 20 20" fill="none" xmlns="http://www.w3.org/2000/svg" xmlns:xlink="http://www.w3.org/1999/xlink" x="0" y="0"><g id="Frame_9">
<path id="Vector_201" d="M2.4998,5.8333v-1.67c0,-0.44 0.176,-0.86 0.488,-1.18c0.313,-0.31 0.737,-0.48 1.179,-0.48h1.667" stroke="#9D4EDD" stroke-width="1.66667" stroke-linecap="round" stroke-linejoin="round"/>
<path id="Vector_202" d="M14.1668,2.5033h1.667c0.442,0 0.866,0.17 1.178,0.48c0.313,0.32 0.488,0.74 0.488,1.18v1.67" stroke="#9D4EDD" stroke-width="1.66667" stroke-linecap="round" stroke-linejoin="round"/>
<path id="Vector_203" d="M17.4998,14.1633v1.67c0,0.44 -0.175,0.87 -0.488,1.18c-0.312,0.31 -0.736,0.49 -1.178,0.49h-1.667" stroke="#9D4EDD" stroke-width="1.66667" stroke-linecap="round" stroke-linejoin="round"/>
<path id="Vector_204" d="M5.8338,17.5033h-1.667c-0.442,0 -0.866,-0.18 -1.179,-0.49c-0.312,-0.31 -0.488,-0.74 -0.488,-1.18v-1.67" stroke="#9D4EDD" stroke-width="1.66667" stroke-linecap="round" stroke-linejoin="round"/>
<path id="Vector_205" d="M13.3338,6.6633h-6.667c-0.46,0 -0.833,0.38 -0.833,0.84v5c0,0.46 0.373,0.83 0.833,0.83h6.667c0.46,0 0.833,-0.37 0.833,-0.83v-5c0,-0.46 -0.373,-0.84 -0.833,-0.84z" stroke="#9D4EDD" stroke-width="1.66667" stroke-linecap="round" stroke-linejoin="round"/>
</g></svg>