<svg viewBox="0 0 394.4946 106.8203" fill="none" xmlns="http://www.w3.org/2000/svg" xmlns:xlink="http://www.w3.org/1999/xlink" x="0" y="0"><defs><linearGradient id="paint53_linear_151_923" x1="197.24740000000008" y1="0.00009999999974752427" x2="197.24740000000008" y2="106.82009999999991" gradientUnits="userSpaceOnUse">
<stop stop-color="#7DC95E"/>
<stop offset="1" stop-color="#7DC95E" stop-opacity="0"/>
</linearGradient></defs><path id="Vector 329" opacity="0.4" d="M54.5104,41.0301l-51.944,22.22c-1.557,0.67 -2.566,2.2 -2.566,3.89v39.68h394.499v-106.82l-96.21,49.63c-1.47,0.76 -3.254,0.59 -4.556,-0.43l-48.9,-38.43c-1.37,-1.08 -3.261,-1.21 -4.763,-0.32l-49.126,28.96c-1.074,0.63 -2.372,0.76 -3.549,0.34l-39.229,-13.76c-1.005,-0.35 -2.107,-0.31 -3.084,0.11l-55.647,24.14c-0.949,0.41 -2.017,0.46 -3,0.14l-28.945,-9.48c-0.976,-0.32 -2.036,-0.27 -2.98,0.13z" fill="url(#paint53_linear_151_923)"/></svg>