<svg viewBox="0 0 30.2106 30.2106" fill="none" xmlns="http://www.w3.org/2000/svg" xmlns:xlink="http://www.w3.org/1999/xlink" x="0" y="0"><defs><clipPath id="clip5_151_923">
<rect width="13.2743" height="13.2743" fill="white" transform="translate(8.694899999999961, 8.695999999999913)"/>
</clipPath></defs><g id="Group 482193">
<circle id="Ellipse 1252" cx="15.104899999999816" cy="15.105999999999767" r="15.1053" fill="#C77DFF"/>
<g id="Frame_6" clip-path="url(#clip5_151_923)">
<path id="Vector_184" d="M15.3349,20.866c-1.47,0 -2.87,-0.58 -3.91,-1.62c-1.04,-1.04 -1.62,-2.44 -1.62,-3.91c0,-1.47 0.58,-2.88 1.62,-3.91c1.04,-1.04 2.44,-1.62 3.91,-1.62c1.47,0 2.87,0.52 3.91,1.46c1.04,0.93 1.62,2.19 1.62,3.52c0,0.73 -0.29,1.43 -0.81,1.95c-0.52,0.52 -1.22,0.81 -1.95,0.81h-1.25c-0.18,0 -0.36,0.05 -0.51,0.15c-0.15,0.09 -0.27,0.22 -0.36,0.39c-0.08,0.16 -0.11,0.34 -0.09,0.52c0.01,0.17 0.08,0.35 0.19,0.49l0.16,0.22c0.11,0.14 0.18,0.32 0.19,0.49c0.02,0.18 -0.02,0.36 -0.1,0.52c-0.08,0.16 -0.2,0.3 -0.35,0.39c-0.16,0.1 -0.33,0.15 -0.51,0.15z" stroke="#F5F5F5" stroke-width="1.10619" stroke-linecap="round" stroke-linejoin="round"/>
<path id="Vector_185" d="M16.1649,12.566c0.15,0 0.28,-0.12 0.28,-0.27c0,-0.16 -0.13,-0.28 -0.28,-0.28c-0.15,0 -0.28,0.12 -0.28,0.28c0,0.15 0.13,0.27 0.28,0.27z" fill="#F5F5F5" stroke="#F5F5F5" stroke-width="1.10619" stroke-linecap="round" stroke-linejoin="round"/>
<path id="Vector_186" d="M18.3749,14.786c0.15,0 0.28,-0.13 0.28,-0.28c0,-0.15 -0.13,-0.28 -0.28,-0.28c-0.15,0 -0.27,0.13 -0.27,0.28c0,0.15 0.12,0.28 0.27,0.28z" fill="#F5F5F5" stroke="#F5F5F5" stroke-width="1.10619" stroke-linecap="round" stroke-linejoin="round"/>
<path id="Vector_187" d="M12.2949,15.886c0.15,0 0.27,-0.12 0.27,-0.28c0,-0.15 -0.12,-0.27 -0.27,-0.27c-0.16,0 -0.28,0.12 -0.28,0.27c0,0.16 0.12,0.28 0.28,0.28z" fill="#F5F5F5" stroke="#F5F5F5" stroke-width="1.10619" stroke-linecap="round" stroke-linejoin="round"/>
<path id="Vector_188" d="M13.3949,13.126c0.16,0 0.28,-0.13 0.28,-0.28c0,-0.15 -0.12,-0.28 -0.28,-0.28c-0.15,0 -0.27,0.13 -0.27,0.28c0,0.15 0.12,0.28 0.27,0.28z" fill="#F5F5F5" stroke="#F5F5F5" stroke-width="1.10619" stroke-linecap="round" stroke-linejoin="round"/>
</g>
</g></svg>