<svg viewBox="0 0 21.1525 21.1525" fill="none" xmlns="http://www.w3.org/2000/svg" xmlns:xlink="http://www.w3.org/1999/xlink" x="0" y="0"><g id="Frame_5">
<path id="Vector_64" d="M9.6948,13.2168h1.76c0.47,0 0.92,-0.18 1.25,-0.51c0.33,-0.33 0.52,-0.78 0.52,-1.25c0,-0.47 -0.19,-0.92 -0.52,-1.25c-0.33,-0.33 -0.78,-0.51 -1.25,-0.51h-2.64c-0.53,0 -0.97,0.17 -1.24,0.53l-4.93,4.76" stroke="#9D4EDD" stroke-width="1.5" stroke-linecap="round" stroke-linejoin="round"/>
<path id="Vector_65" d="M6.1648,18.5068l1.41,-1.23c0.27,-0.35 0.71,-0.53 1.24,-0.53h3.52c0.97,0 1.85,-0.35 2.47,-1.06l4.06,-3.88c0.34,-0.32 0.53,-0.76 0.55,-1.23c0.01,-0.47 -0.16,-0.92 -0.48,-1.26c-0.32,-0.34 -0.77,-0.54 -1.24,-0.55c-0.46,-0.02 -0.92,0.16 -1.26,0.48l-3.7,3.44" stroke="#9D4EDD" stroke-width="1.5" stroke-linecap="round" stroke-linejoin="round"/>
<path id="Vector_66" d="M1.7648,14.0968l5.29,5.29" stroke="#9D4EDD" stroke-width="1.5" stroke-linecap="round" stroke-linejoin="round"/>
<path id="Vector_67" d="M14.1048,10.4868c1.41,0 2.55,-1.14 2.55,-2.55c0,-1.42 -1.14,-2.56 -2.55,-2.56c-1.41,0 -2.56,1.14 -2.56,2.56c0,1.41 1.15,2.55 2.56,2.55z" stroke="#9D4EDD" stroke-width="1.5" stroke-linecap="round" stroke-linejoin="round"/>
<path id="Vector_68" d="M5.2848,7.0468c1.46,0 2.65,-1.18 2.65,-2.64c0,-1.46 -1.19,-2.64 -2.65,-2.64c-1.46,0 -2.64,1.18 -2.64,2.64c0,1.46 1.18,2.64 2.64,2.64z" stroke="#9D4EDD" stroke-width="1.5" stroke-linecap="round" stroke-linejoin="round"/>
</g></svg>