<svg viewBox="0 0 19.5665 16.9998" fill="none" xmlns="http://www.w3.org/2000/svg" xmlns:xlink="http://www.w3.org/1999/xlink" x="0" y="0"><path id="Shape" fill-rule="evenodd" clip-rule="evenodd" d="M0,13.0033v0v0v0v0v0v0l2.14,-0.95c0.31,-0.14 0.39,-0.55 0.18,-0.82c-2.51,-3.11 -2.71,-7.29 -0.76,-10.56c0.19,-0.32 0.65,-0.29 0.85,0.02c1.17,1.83 3,3.45 5,4.13c0.3,0.11 0.6,-0.12 0.64,-0.44c0.33,-2.57 2.22,-4.38 4.95,-4.38c1.88,0 3.04,0.67 3.85,1.78c0.1,0.13 0.25,0.22 0.42,0.22h1.8c0.4,0 0.63,0.44 0.41,0.77l-1.4,2.1c-0.05,0.08 -0.08,0.18 -0.08,0.28c-0.06,6.92 -4.05,11.85 -11,11.85c-4,0 -5.6,-2.09 -7,-4z" fill="currentColor"/></svg>