<svg viewBox="0 0 17.8748 17.8756" fill="none" xmlns="http://www.w3.org/2000/svg" xmlns:xlink="http://www.w3.org/1999/xlink" x="0" y="0"><g id="Group 10">
<path id="Vector_262" d="M17.87,17.8733v0v0v-6.55c0,-3.21 -0.69,-5.68 -4.43,-5.68c-1.81,0 -3.02,0.99 -3.51,1.93h-0.05v-1.63h-3.56v11.93h3.7v-5.91c0,-1.55 0.3,-3.06 2.23,-3.06c1.89,0 1.92,1.78 1.92,3.16v5.81z" fill="currentColor"/>
<path id="Vector_263" d="M0.29,5.9433h3.71v11.93h-3.71z" fill="currentColor"/>
<path id="Vector_264" d="M2.15,0.0033c-1.19,0 -2.15,0.96 -2.15,2.14c0,1.19 0.96,2.17 2.15,2.17c1.18,0 2.14,-0.98 2.14,-2.17c0,-1.18 -0.96,-2.14 -2.14,-2.14z" fill="currentColor"/>
</g></svg>