<svg viewBox="0 0 17 17" fill="none" xmlns="http://www.w3.org/2000/svg" xmlns:xlink="http://www.w3.org/1999/xlink" x="0" y="0"><path id="social/instagram" d="M11.33,8.4533c0,1.53 -1.26,2.79 -2.79,2.79c-1.52,0 -2.78,-1.26 -2.78,-2.79c0,-1.53 1.26,-2.79 2.78,-2.79c1.53,0 2.79,1.26 2.79,2.79zM12.86,8.4533c0,-2.43 -1.98,-4.32 -4.32,-4.32c-2.42,0 -4.31,1.98 -4.31,4.32c0,2.43 1.98,4.32 4.31,4.32c2.34,0.09 4.32,-1.89 4.32,-4.32zM14.03,3.9533c0,-0.54 -0.45,-0.99 -0.99,-0.99c-0.54,0 -0.99,0.45 -0.99,0.99c0,0.54 0.45,0.99 0.99,0.99c0.54,0 0.99,-0.45 0.99,-0.99zM8.46,1.5333c1.25,0 3.86,-0.09 5.03,0.36c0.36,0.18 0.63,0.36 0.99,0.63c0.27,0.27 0.45,0.62 0.63,0.98c0.45,1.08 0.36,3.78 0.36,5.04c0,1.26 0.09,3.87 -0.36,5.04c-0.18,0.36 -0.36,0.63 -0.63,0.99c-0.27,0.27 -0.63,0.45 -0.99,0.63c-1.08,0.45 -3.78,0.36 -5.03,0.36c-1.26,0 -3.87,0.09 -5.04,-0.36c-0.36,-0.18 -0.63,-0.36 -0.99,-0.63c-0.27,-0.27 -0.45,-0.63 -0.63,-0.99c-0.45,-1.08 -0.36,-3.78 -0.36,-5.04c0,-1.26 -0.09,-3.87 0.36,-5.04c0.18,-0.36 0.36,-0.62 0.63,-0.98c0.27,-0.27 0.63,-0.45 0.99,-0.63c1.17,-0.45 3.87,-0.36 5.04,-0.36zM17,8.4533c0,-1.17 0,-2.34 -0.09,-3.51c-0.09,-1.35 -0.36,-2.51 -1.35,-3.59c-0.99,-0.99 -2.16,-1.26 -3.6,-1.35c-1.17,0 -2.34,0 -3.5,0c-1.17,0 -2.34,0 -3.51,0.09c-1.35,0 -2.52,0.36 -3.51,1.35c-0.99,0.99 -1.35,2.15 -1.35,3.5c-0.09,1.17 -0.09,2.34 -0.09,3.51c0,1.17 0,2.34 0.09,3.51c0.09,1.35 0.36,2.52 1.35,3.6c0.99,0.99 2.16,1.26 3.6,1.35c1.17,0.09 2.34,0.09 3.5,0.09c1.17,0 2.34,0 3.51,-0.09c1.35,-0.09 2.52,-0.36 3.6,-1.35c0.99,-0.99 1.26,-2.16 1.35,-3.6c0,-1.17 0,-2.34 0,-3.51z" fill="currentColor"/></svg>