<svg viewBox="0 0 20 20" fill="none" xmlns="http://www.w3.org/2000/svg" xmlns:xlink="http://www.w3.org/1999/xlink" x="0" y="0"><g id="Frame_2">
<path id="Vector_45" d="M18.0331,3.03l-1.066,-1.06c-0.094,-0.1 -0.206,-0.17 -0.329,-0.22c-0.123,-0.06 -0.255,-0.08 -0.388,-0.08c-0.133,0 -0.265,0.02 -0.388,0.08c-0.123,0.05 -0.235,0.12 -0.329,0.22l-13.566,13.56c-0.095,0.1 -0.17,0.21 -0.222,0.33c-0.051,0.12 -0.077,0.26 -0.077,0.39c0,0.13 0.026,0.27 0.077,0.39c0.052,0.12 0.127,0.23 0.222,0.33l1.066,1.06c0.093,0.1 0.205,0.18 0.328,0.23c0.123,0.05 0.255,0.08 0.389,0.08c0.134,0 0.266,-0.03 0.389,-0.08c0.123,-0.05 0.234,-0.13 0.328,-0.23l13.566,-13.56c0.096,-0.1 0.172,-0.21 0.224,-0.33c0.052,-0.12 0.079,-0.26 0.079,-0.39c0,-0.13 -0.027,-0.27 -0.079,-0.39c-0.052,-0.12 -0.128,-0.23 -0.224,-0.33z" stroke="#9D4EDD" stroke-width="1.66667" stroke-linecap="round" stroke-linejoin="round"/>
<path id="Vector_46" d="M11.6671,5.83l2.5,2.5" stroke="#9D4EDD" stroke-width="1.66667" stroke-linecap="round" stroke-linejoin="round"/>
<path id="Vector_47" d="M4.1671,5v3.33" stroke="#9D4EDD" stroke-width="1.66667" stroke-linecap="round" stroke-linejoin="round"/>
<path id="Vector_48" d="M15.8331,11.67v3.33" stroke="#9D4EDD" stroke-width="1.66667" stroke-linecap="round" stroke-linejoin="round"/>
<path id="Vector_49" d="M8.3331,1.67v1.66" stroke="#9D4EDD" stroke-width="1.66667" stroke-linecap="round" stroke-linejoin="round"/>
<path id="Vector_50" d="M5.8331,6.67h-3.333" stroke="#9D4EDD" stroke-width="1.66667" stroke-linecap="round" stroke-linejoin="round"/>
<path id="Vector_51" d="M17.5001,13.33h-3.333" stroke="#9D4EDD" stroke-width="1.66667" stroke-linecap="round" stroke-linejoin="round"/>
<path id="Vector_52" d="M9.1671,2.5h-1.667" stroke="#9D4EDD" stroke-width="1.66667" stroke-linecap="round" stroke-linejoin="round"/>
</g></svg>