<svg viewBox="0 0 20 20" fill="none" xmlns="http://www.w3.org/2000/svg" xmlns:xlink="http://www.w3.org/1999/xlink" x="0" y="0"><g id="Frame">
<path id="Vector_41" d="M9.1808,2.35c0.036,-0.2 0.137,-0.37 0.287,-0.49c0.149,-0.13 0.338,-0.2 0.532,-0.2c0.195,0 0.383,0.07 0.533,0.2c0.149,0.12 0.251,0.29 0.286,0.49l0.876,4.63c0.062,0.33 0.222,0.63 0.459,0.87c0.237,0.23 0.54,0.39 0.87,0.46l4.631,0.87c0.191,0.04 0.364,0.14 0.488,0.29c0.125,0.15 0.193,0.34 0.193,0.53c0,0.19 -0.068,0.38 -0.193,0.53c-0.124,0.15 -0.297,0.25 -0.488,0.29l-4.631,0.88c-0.33,0.06 -0.633,0.22 -0.87,0.45c-0.237,0.24 -0.397,0.54 -0.459,0.87l-0.876,4.64c-0.035,0.19 -0.137,0.36 -0.286,0.48c-0.15,0.13 -0.338,0.2 -0.533,0.2c-0.194,0 -0.383,-0.07 -0.532,-0.2c-0.15,-0.12 -0.251,-0.29 -0.287,-0.48l-0.876,-4.64c-0.062,-0.33 -0.222,-0.63 -0.459,-0.87c-0.237,-0.23 -0.54,-0.39 -0.869,-0.45l-4.632,-0.88c-0.191,-0.04 -0.364,-0.14 -0.488,-0.29c-0.124,-0.15 -0.192,-0.34 -0.192,-0.53c0,-0.19 0.068,-0.38 0.192,-0.53c0.124,-0.15 0.297,-0.25 0.488,-0.29l4.632,-0.87c0.329,-0.07 0.632,-0.23 0.869,-0.46c0.237,-0.24 0.397,-0.54 0.459,-0.87z" stroke="#9D4EDD" stroke-width="1.66667" stroke-linecap="round" stroke-linejoin="round"/>
<path id="Vector_42" d="M16.6668,1.67v3.33" stroke="#9D4EDD" stroke-width="1.66667" stroke-linecap="round" stroke-linejoin="round"/>
<path id="Vector_43" d="M18.3338,3.33h-3.334" stroke="#9D4EDD" stroke-width="1.66667" stroke-linecap="round" stroke-linejoin="round"/>
<path id="Vector_44" d="M3.3338,18.33c0.92,0 1.666,-0.74 1.666,-1.66c0,-0.92 -0.746,-1.67 -1.666,-1.67c-0.921,0 -1.667,0.75 -1.667,1.67c0,0.92 0.746,1.66 1.667,1.66z" stroke="#9D4EDD" stroke-width="1.66667" stroke-linecap="round" stroke-linejoin="round"/>
</g></svg>