<svg viewBox="0 0 20 20" fill="none" xmlns="http://www.w3.org/2000/svg" xmlns:xlink="http://www.w3.org/1999/xlink" x="0" y="0"><g id="Frame_3">
<path id="Vector_53" d="M4.1665,7.5c1.381,0 2.5,-1.12 2.5,-2.5c0,-1.38 -1.119,-2.5 -2.5,-2.5c-1.38,0 -2.5,1.12 -2.5,2.5c0,1.38 1.12,2.5 2.5,2.5z" stroke="#9D4EDD" stroke-width="1.66667" stroke-linecap="round" stroke-linejoin="round"/>
<path id="Vector_54" d="M10.0005,5h4.166c0.442,0 0.866,0.18 1.179,0.49c0.312,0.31 0.488,0.73 0.488,1.18v5.83" stroke="#9D4EDD" stroke-width="1.66667" stroke-linecap="round" stroke-linejoin="round"/>
<path id="Vector_55" d="M12.5005,7.5l-2.5,-2.5l2.5,-2.5" stroke="#9D4EDD" stroke-width="1.66667" stroke-linecap="round" stroke-linejoin="round"/>
<path id="Vector_56" d="M15.8335,17.5c1.381,0 2.5,-1.12 2.5,-2.5c0,-1.38 -1.119,-2.5 -2.5,-2.5c-1.381,0 -2.5,1.12 -2.5,2.5c0,1.38 1.119,2.5 2.5,2.5z" stroke="#9D4EDD" stroke-width="1.66667" stroke-linecap="round" stroke-linejoin="round"/>
<path id="Vector_57" d="M10.0005,15h-4.167c-0.442,0 -0.866,-0.18 -1.179,-0.49c-0.312,-0.31 -0.488,-0.73 -0.488,-1.18v-5.83" stroke="#9D4EDD" stroke-width="1.66667" stroke-linecap="round" stroke-linejoin="round"/>
<path id="Vector_58" d="M7.5005,12.5l2.5,2.5l-2.5,2.5" stroke="#9D4EDD" stroke-width="1.66667" stroke-linecap="round" stroke-linejoin="round"/>
</g></svg>